<svg xmlns="http://www.w3.org/2000/svg" viewBox="0 0 148.17 27.5"><defs><style>.cls-1{fill:#fff;}</style></defs><g id="Livello_2" data-name="Livello 2"><g id="Livello_1-2" data-name="Livello 1"><path class="cls-1" d="M2.88,17.85c10.57,0,10.54-8.23,3.46-8.23C2.39,9.62,0,13,0,16.45s2.18,6.83,6,6.83a9.64,9.64,0,0,0,5.26-1.68l-.93-1.54c-3.49,2.55-7.7.51-7.48-2.19ZM6.6,11.74c4,0,2.81,4.45-3.74,4.11A3.81,3.81,0,0,1,6.6,11.74"/><path class="cls-1" d="M19.75,9.62a6.35,6.35,0,0,0-4.2,1.57l-.34-1A.26.26,0,0,0,15,10H12.71l.58,2.24V23a.25.25,0,0,0,.25.25h2.61V13.11a3.51,3.51,0,0,1,3-1.39c1.16,0,2.47,1.11,2.47,3.22V23a.25.25,0,0,0,.25.25h2.6V14.49c0-2.64-1.24-4.87-4.73-4.87"/><path class="cls-1" d="M30.63,11.51h3.28a.25.25,0,0,0,.25-.21l.26-1.68H30.63V5.79l-1.94.66a.26.26,0,0,0-.16.18l-.76,3H25.9v1.89h1.87v8.12c0,4.56,5.43,3.85,6.65,2.9V21.05H32.26a1.42,1.42,0,0,1-1.62-1.58Z"/><path class="cls-1" d="M47.33,10.79a12,12,0,0,0-5.14-1.17c-1.87,0-6.35,1.18-6.35,6.83s2.82,6.83,5.4,6.83a5.59,5.59,0,0,0,3.53-1.68A2.22,2.22,0,0,0,47,23.28a3.52,3.52,0,0,0,1.89-.54l-.17-1.58c-.7,0-1.44-.57-1.44-2.19ZM41.52,21.08c-3.74,0-4.26-9.41.78-9.41a3.69,3.69,0,0,1,2.19.47v6.64c-.92,2-2.12,2.3-3,2.3"/><path class="cls-1" d="M75.05,5.76l-2.66.63a.26.26,0,0,0-.19.24V9.89a9.4,9.4,0,0,0-2.29-.27c-1.87,0-6.36,1.18-6.36,6.83s2.82,6.83,5.41,6.83a4.94,4.94,0,0,0,3.52-1.68,2.47,2.47,0,0,0,2.3,1.68,3.93,3.93,0,0,0,2-.54V21.16c-1.36,0-1.69-.53-1.69-2.22ZM69.24,21.08c-3.74,0-4-9.41.77-9.41a3.69,3.69,0,0,1,2.19.47v6.64c-.91,2-2.11,2.3-3,2.3"/><path class="cls-1" d="M78.16,16.51c0,3.31,1.56,6.8,6.1,6.8,5,0,6-3.52,6-6.8s-1.06-6.89-6-6.89C79.75,9.62,78.16,13.2,78.16,16.51ZM81,16.23c0-3.2,1.28-4.52,3.23-4.52,1.73,0,3.18,1.2,3.18,4.56s-1.4,5.05-3.18,5.05C82.16,21.32,81,19.48,81,16.23Z"/><path class="cls-1" d="M57.39,9.62a6.32,6.32,0,0,0-4.2,1.57l-.35-1a.25.25,0,0,0-.23-.17H50.35l.58,2.24V23a.25.25,0,0,0,.25.25h2.61V13.11a3.5,3.5,0,0,1,3-1.39c1.16,0,2.48,1.11,2.48,3.22V23a.25.25,0,0,0,.25.25h2.6V14.49c0-2.64-1.24-4.87-4.73-4.87"/><path class="cls-1" d="M112.91,20.45v2.84h-10V6.36h3.5V20.45Z"/><path class="cls-1" d="M114.33,12.93a7.24,7.24,0,0,1,2.35-1.43,8.05,8.05,0,0,1,2.77-.47,5,5,0,0,1,1.92.35,4,4,0,0,1,1.44,1,4.26,4.26,0,0,1,.9,1.48,5.51,5.51,0,0,1,.32,1.89v7.56h-1.47a1.45,1.45,0,0,1-.7-.13.91.91,0,0,1-.39-.53l-.26-.77a10.35,10.35,0,0,1-.88.7,4.53,4.53,0,0,1-.88.5,4.4,4.4,0,0,1-1,.31,5.86,5.86,0,0,1-1.16.11,4.75,4.75,0,0,1-1.45-.21,3.21,3.21,0,0,1-1.13-.63,2.74,2.74,0,0,1-.72-1,3.49,3.49,0,0,1-.26-1.42,2.86,2.86,0,0,1,.34-1.33,3.23,3.23,0,0,1,1.16-1.21,7.52,7.52,0,0,1,2.19-.9,15.79,15.79,0,0,1,3.44-.4v-.62a2.42,2.42,0,0,0-.48-1.66,1.78,1.78,0,0,0-1.38-.53,3.26,3.26,0,0,0-1.11.16,4.24,4.24,0,0,0-.77.34l-.63.33a1.33,1.33,0,0,1-.67.16.94.94,0,0,1-.57-.17,1.6,1.6,0,0,1-.38-.4Zm6.56,5.33a14.52,14.52,0,0,0-2,.21,4.77,4.77,0,0,0-1.25.38,1.62,1.62,0,0,0-.65.53,1.15,1.15,0,0,0-.19.65,1.17,1.17,0,0,0,.39,1,1.81,1.81,0,0,0,1.09.29,3.13,3.13,0,0,0,1.39-.29,4.21,4.21,0,0,0,1.18-.89Z"/><path class="cls-1" d="M129.77,12.65a6,6,0,0,1,1.57-1.14,4.53,4.53,0,0,1,3.81,0,4,4,0,0,1,1.42,1.19,5.39,5.39,0,0,1,.91,1.86A8.39,8.39,0,0,1,137.8,17a9.13,9.13,0,0,1-.36,2.65,6.3,6.3,0,0,1-1.05,2.05,4.58,4.58,0,0,1-3.71,1.79,4.31,4.31,0,0,1-1-.11,4,4,0,0,1-.82-.31,3.7,3.7,0,0,1-.69-.48,4.89,4.89,0,0,1-.59-.61l-.13.73a.75.75,0,0,1-.27.47.82.82,0,0,1-.5.13h-2.13V5.9h3.22Zm0,7.47a2.54,2.54,0,0,0,1,.73,3,3,0,0,0,1.1.21,2.67,2.67,0,0,0,1.08-.21,2.21,2.21,0,0,0,.84-.69,3.49,3.49,0,0,0,.53-1.23,7.51,7.51,0,0,0,.19-1.83,7.6,7.6,0,0,0-.15-1.63,3.09,3.09,0,0,0-.45-1.1,1.75,1.75,0,0,0-.73-.63,2.41,2.41,0,0,0-1-.2,2.54,2.54,0,0,0-1.32.33,4.18,4.18,0,0,0-1.07,1Z"/><path class="cls-1" d="M147.35,13.74a1,1,0,0,1-.27.28.64.64,0,0,1-.36.09,1.07,1.07,0,0,1-.48-.12l-.55-.25a6,6,0,0,0-.69-.25,3.2,3.2,0,0,0-.91-.11,2,2,0,0,0-1.21.32,1,1,0,0,0-.43.84.84.84,0,0,0,.24.61,2.28,2.28,0,0,0,.65.42,5.74,5.74,0,0,0,.92.34l1.05.35a10.69,10.69,0,0,1,1.06.43,3.81,3.81,0,0,1,.91.61,2.77,2.77,0,0,1,.65.89,2.93,2.93,0,0,1,.24,1.25,3.94,3.94,0,0,1-.32,1.62,3.55,3.55,0,0,1-.93,1.28,4.78,4.78,0,0,1-1.55.84,6.82,6.82,0,0,1-2.12.3,6.78,6.78,0,0,1-2.38-.43,6.35,6.35,0,0,1-1-.47A4.49,4.49,0,0,1,139,22l.74-1.2a1.12,1.12,0,0,1,.32-.33,1,1,0,0,1,.5-.12,1,1,0,0,1,.54.15l.55.31a4.3,4.3,0,0,0,.71.32,3.09,3.09,0,0,0,1,.14,2.76,2.76,0,0,0,.81-.1,1.5,1.5,0,0,0,.55-.29,1.12,1.12,0,0,0,.31-.41,1.24,1.24,0,0,0,.1-.47.92.92,0,0,0-.25-.65,2.36,2.36,0,0,0-.66-.43,6.12,6.12,0,0,0-.92-.34c-.35-.1-.71-.21-1.07-.34a8.16,8.16,0,0,1-1.06-.44,3.61,3.61,0,0,1-.93-.65,3.18,3.18,0,0,1-.65-1,3.42,3.42,0,0,1-.25-1.39,3.61,3.61,0,0,1,.29-1.42,3.35,3.35,0,0,1,.88-1.18,4.33,4.33,0,0,1,1.45-.82,6.77,6.77,0,0,1,4.34.12,5.07,5.07,0,0,1,1.73,1.09Z"/><rect class="cls-1" x="95.94" width="1.25" height="27.5"/></g></g></svg>